<svg width="296" height="296" viewBox="0 0 296 296" fill="none" xmlns="http://www.w3.org/2000/svg">
<path fill-rule="evenodd" clip-rule="evenodd" d="M37.1859 0C16.6487 0 0 16.6487 0 37.1859V258.814C0 279.351 16.6487 296 37.1859 296H258.814C279.351 296 296 279.351 296 258.814V37.1859C296 16.6487 279.351 0 258.814 0H37.1859ZM147.926 37.6475C95.5921 37.6475 51.767 74.0762 40.4253 122.959H22.7578C34.3951 64.4655 86.0117 20.3779 147.926 20.3779C209.84 20.3779 261.456 64.4655 273.093 122.959H255.426C252.143 108.81 246.14 95.7053 237.996 84.2248C219.071 76.5861 199.858 85.0154 192.144 92.7304C187.142 97.7315 172.946 111.867 161.802 122.959H139.134C155.281 106.497 173.862 87.5784 179.452 81.9889C186.917 74.5231 207.637 65.8707 223.075 67.1892C203.373 48.8592 176.959 37.6475 147.926 37.6475ZM97.4457 214.597C99.1378 216.29 101.221 217.136 103.694 217.136C106.167 217.136 108.25 216.29 109.942 214.597C111.764 212.904 112.675 210.82 112.675 208.347V178.107H94.9074V208.347C94.9074 210.82 95.7535 212.904 97.4457 214.597ZM185.309 213.62L157.466 178.107H179.132L198.783 202.879C200.214 204.701 200.93 206.59 200.93 208.543C201.06 210.886 200.279 212.904 198.586 214.597C196.895 216.29 194.813 217.136 192.339 217.136C189.345 217.136 187.002 215.964 185.309 213.62ZM94.9074 122.959H112.675V87.8479C112.675 85.3741 111.764 83.291 109.942 81.5983C108.25 79.7756 106.167 78.8641 103.694 78.8641C101.221 78.8641 99.1378 79.7756 97.4457 81.5983C95.7535 83.291 94.9074 85.3741 94.9074 87.8479V122.959ZM254.123 178.107C241.018 224.42 198.435 258.353 147.926 258.353C97.4164 258.353 54.8327 224.42 41.7287 178.107H23.8737C37.4058 234.062 87.8122 275.622 147.926 275.622C208.039 275.622 258.445 234.062 271.978 178.107H254.123ZM27.1066 165.889C26.4875 165.889 25.9662 165.677 25.5427 165.254C25.1191 164.83 24.9073 164.31 24.9073 163.691V133.561C24.9073 132.942 25.1191 132.421 25.5427 131.998C25.9662 131.542 26.4875 131.315 27.1066 131.315C27.7257 131.315 28.247 131.542 28.6706 131.998C29.1267 132.421 29.3549 132.942 29.3549 133.561V149.09L46.0696 132.096C46.5258 131.575 47.0798 131.315 47.7314 131.315C48.2853 131.315 48.7577 131.51 49.1488 131.901C49.5724 132.259 49.7841 132.714 49.7841 133.268C49.7841 133.919 49.605 134.424 49.2465 134.782L37.9566 146.014L50.9083 162.324C51.2666 162.779 51.4458 163.252 51.4458 163.74C51.4784 164.326 51.283 164.83 50.8593 165.254C50.4357 165.677 49.9145 165.889 49.2955 165.889C48.5459 165.889 47.9594 165.596 47.536 165.01L34.9265 148.943L29.3549 154.56V163.691C29.3549 164.31 29.1267 164.83 28.6706 165.254C28.247 165.677 27.7257 165.889 27.1066 165.889ZM59.1152 165.254C60.3534 165.84 61.6892 166.133 63.123 166.133C66.8374 166.133 69.9 164.896 72.3112 162.422V163.691C72.3112 164.31 72.523 164.83 72.9466 165.254C73.3702 165.677 73.8914 165.889 74.5105 165.889C75.1296 165.889 75.6509 165.677 76.0745 165.254C76.5307 164.83 76.7588 164.31 76.7588 163.691V149.871C76.7588 148.178 76.3841 146.616 75.6347 145.183C74.9179 143.718 73.7775 142.53 72.2134 141.618C70.6821 140.707 68.7923 140.251 66.5441 140.251C63.6769 140.251 60.8583 140.837 58.0889 142.009C57.2418 142.367 56.8182 142.986 56.8182 143.865C56.8182 144.386 56.9974 144.825 57.3557 145.183C57.7142 145.541 58.1378 145.721 58.6264 145.721C58.7895 145.721 59.0013 145.688 59.2619 145.623C60.4349 145.232 61.4938 144.939 62.4386 144.744C63.4161 144.549 64.524 144.451 65.7621 144.451C68.0102 144.451 69.6558 144.923 70.6983 145.867C71.7736 146.811 72.3112 148.358 72.3112 150.506V150.898H66.3974C62.7156 150.898 59.9135 151.613 57.9912 153.045C56.1014 154.478 55.1564 156.4 55.1564 158.808C55.1564 160.273 55.5149 161.576 56.2317 162.715C56.9485 163.822 57.9096 164.668 59.1152 165.254ZM68.9388 161.201C67.603 161.885 66.2183 162.226 64.7846 162.226C62.9274 162.226 61.5915 161.869 60.777 161.152C59.995 160.436 59.604 159.492 59.604 158.32C59.604 155.748 62.0639 154.461 66.9839 154.461H72.3112V158.564C71.3989 159.605 70.2749 160.484 68.9388 161.201ZM86.4125 165.889C85.7934 165.889 85.2721 165.677 84.8485 165.254C84.425 164.83 84.2132 164.31 84.2132 163.691V142.742C84.2132 142.123 84.425 141.602 84.8485 141.179C85.2721 140.723 85.7934 140.495 86.4125 140.495C87.0316 140.495 87.5529 140.723 87.9764 141.179C88.4326 141.602 88.6606 142.123 88.6606 142.742V144.744C89.8988 143.376 91.2348 142.286 92.6684 141.472C94.102 140.658 95.7963 140.251 97.7513 140.251C99.5433 140.251 101.091 140.674 102.394 141.521C103.73 142.367 104.74 143.523 105.424 144.988C106.141 146.453 106.5 148.065 106.5 149.822V163.691C106.5 164.31 106.272 164.83 105.815 165.254C105.392 165.677 104.871 165.889 104.251 165.889C103.632 165.889 103.111 165.677 102.687 165.254C102.264 164.83 102.052 164.31 102.052 163.691V150.311C102.052 146.339 100.26 144.353 96.676 144.353C95.0469 144.353 93.5806 144.776 92.2773 145.623C91.0066 146.469 89.801 147.609 88.6606 149.041V163.691C88.6606 164.31 88.4326 164.83 87.9764 165.254C87.5529 165.677 87.0316 165.889 86.4125 165.889ZM119.03 164.57C121.017 165.613 123.184 166.133 125.53 166.133C127.257 166.133 128.739 165.922 129.977 165.498C131.248 165.043 132.421 164.473 133.496 163.789C134.148 163.365 134.474 162.796 134.474 162.08C134.474 161.592 134.278 161.152 133.887 160.761C133.529 160.338 133.105 160.127 132.617 160.127C132.258 160.127 131.9 160.224 131.542 160.42C130.466 160.973 129.538 161.379 128.756 161.64C128.006 161.869 127.061 161.982 125.921 161.982C123.119 161.982 120.92 161.185 119.323 159.589C117.726 157.961 116.928 155.828 116.928 153.193C116.928 150.555 117.726 148.439 119.323 146.844C120.92 145.216 123.119 144.402 125.921 144.402C127.061 144.402 128.006 144.532 128.756 144.793C129.538 145.021 130.466 145.411 131.542 145.965C131.9 146.16 132.258 146.258 132.617 146.258C133.105 146.258 133.529 146.062 133.887 145.672C134.278 145.248 134.474 144.793 134.474 144.304C134.474 143.588 134.148 143.018 133.496 142.595C132.421 141.911 131.248 141.358 129.977 140.935C128.739 140.479 127.257 140.251 125.53 140.251C123.184 140.251 121.017 140.772 119.03 141.814C117.042 142.856 115.446 144.353 114.24 146.307C113.067 148.26 112.481 150.555 112.481 153.193C112.481 155.828 113.067 158.125 114.24 160.078C115.446 162.031 117.042 163.529 119.03 164.57ZM142.157 135.661C141.473 135.661 140.886 135.417 140.398 134.928C139.909 134.44 139.665 133.854 139.665 133.17V132.975C139.665 132.291 139.909 131.705 140.398 131.217C140.886 130.728 141.473 130.484 142.157 130.484H142.45C143.135 130.484 143.721 130.728 144.21 131.217C144.698 131.705 144.943 132.291 144.943 132.975V133.17C144.943 133.854 144.698 134.44 144.21 134.928C143.721 135.417 143.135 135.661 142.45 135.661H142.157ZM142.255 165.889C141.636 165.889 141.114 165.677 140.691 165.254C140.267 164.83 140.055 164.31 140.055 163.691V142.742C140.055 142.123 140.267 141.602 140.691 141.179C141.114 140.723 141.636 140.495 142.255 140.495C142.906 140.495 143.444 140.707 143.868 141.13C144.291 141.553 144.503 142.091 144.503 142.742V163.691C144.503 164.31 144.275 164.83 143.819 165.254C143.395 165.677 142.874 165.889 142.255 165.889ZM152.861 165.254C153.285 165.677 153.807 165.889 154.426 165.889C155.044 165.889 155.567 165.677 155.989 165.254C156.446 164.83 156.673 164.31 156.673 163.691V131.998C156.673 131.347 156.462 130.81 156.038 130.387C155.614 129.963 155.077 129.752 154.426 129.752C153.807 129.752 153.285 129.98 152.861 130.435C152.439 130.859 152.226 131.38 152.226 131.998V163.691C152.226 164.31 152.439 164.83 152.861 165.254ZM166.999 165.889C166.38 165.889 165.858 165.677 165.434 165.254C165.012 164.83 164.799 164.31 164.799 163.691V134.538C164.799 133.659 165.108 132.91 165.729 132.291C166.348 131.64 167.097 131.315 167.976 131.315H169.589C170.24 131.315 170.828 131.51 171.348 131.901C171.903 132.291 172.309 132.779 172.571 133.366L183.664 161.006L194.759 133.366C195.019 132.779 195.411 132.291 195.933 131.901C196.486 131.51 197.088 131.315 197.74 131.315H199.354C200.233 131.315 200.983 131.64 201.601 132.291C202.22 132.91 202.529 133.659 202.529 134.538V163.691C202.529 164.31 202.318 164.83 201.894 165.254C201.472 165.677 200.95 165.889 200.331 165.889C199.712 165.889 199.174 165.677 198.719 165.254C198.295 164.83 198.082 164.31 198.082 163.691V135.954L186.792 163.838C186.532 164.457 186.108 164.961 185.522 165.352C184.969 165.709 184.349 165.889 183.664 165.889C182.98 165.889 182.345 165.709 181.759 165.352C181.206 164.961 180.798 164.457 180.536 163.838L169.247 135.954V163.691C169.247 164.31 169.019 164.83 168.562 165.254C168.14 165.677 167.618 165.889 166.999 165.889ZM213.47 165.254C214.707 165.84 216.043 166.133 217.477 166.133C221.191 166.133 224.253 164.896 226.665 162.422V163.691C226.665 164.31 226.877 164.83 227.3 165.254C227.724 165.677 228.246 165.889 228.865 165.889C229.483 165.889 230.005 165.677 230.428 165.254C230.884 164.83 231.112 164.31 231.112 163.691V149.871C231.112 148.178 230.737 146.616 229.989 145.183C229.272 143.718 228.131 142.53 226.568 141.618C225.036 140.707 223.147 140.251 220.898 140.251C218.03 140.251 215.213 140.837 212.443 142.009C211.595 142.367 211.171 142.986 211.171 143.865C211.171 144.386 211.351 144.825 211.71 145.183C212.068 145.541 212.492 145.721 212.98 145.721C213.144 145.721 213.355 145.688 213.615 145.623C214.789 145.232 215.848 144.939 216.792 144.744C217.77 144.549 218.878 144.451 220.115 144.451C222.364 144.451 224.01 144.923 225.052 145.867C226.128 146.811 226.665 148.358 226.665 150.506V150.898H220.752C217.069 150.898 214.267 151.613 212.345 153.045C210.455 154.478 209.51 156.4 209.51 158.808C209.51 160.273 209.868 161.576 210.585 162.715C211.302 163.822 212.263 164.668 213.47 165.254ZM223.293 161.201C221.957 161.885 220.572 162.226 219.138 162.226C217.282 162.226 215.946 161.869 215.131 161.152C214.349 160.436 213.957 159.492 213.957 158.32C213.957 155.748 216.418 154.461 221.338 154.461H226.665V158.564C225.753 159.605 224.628 160.484 223.293 161.201ZM240.767 165.889C240.147 165.889 239.626 165.677 239.202 165.254C238.778 164.83 238.567 164.31 238.567 163.691V142.742C238.567 142.123 238.778 141.602 239.202 141.179C239.626 140.723 240.147 140.495 240.767 140.495C241.386 140.495 241.906 140.723 242.33 141.179C242.787 141.602 243.015 142.123 243.015 142.742V144.841C245.295 141.781 247.853 140.251 250.688 140.251H250.932C251.551 140.251 252.057 140.463 252.448 140.886C252.87 141.309 253.083 141.83 253.083 142.449C253.083 143.067 252.87 143.572 252.448 143.963C252.024 144.353 251.485 144.548 250.834 144.548H250.59C249.027 144.548 247.593 144.939 246.29 145.721C244.985 146.469 243.894 147.511 243.015 148.846V163.691C243.015 164.31 242.787 164.83 242.33 165.254C241.906 165.677 241.386 165.889 240.767 165.889ZM258.743 159.687C258.743 163.984 261.121 166.133 265.878 166.133C267.312 166.133 268.664 165.84 269.936 165.254C270.684 164.863 271.059 164.293 271.059 163.545C271.059 163.056 270.88 162.65 270.522 162.324C270.163 161.966 269.756 161.787 269.299 161.787C269.071 161.787 268.877 161.803 268.713 161.836L268.322 161.933C267.67 162.129 267.019 162.226 266.367 162.226C265.455 162.226 264.689 162.064 264.071 161.738C263.483 161.38 263.19 160.566 263.19 159.296V144.548H268.713C269.266 144.548 269.723 144.369 270.081 144.011C270.44 143.621 270.62 143.165 270.62 142.644C270.62 142.091 270.44 141.635 270.081 141.277C269.723 140.918 269.266 140.739 268.713 140.739H263.19V136.833C263.19 136.572 263.092 136.344 262.897 136.149C262.735 135.954 262.522 135.856 262.262 135.856C262.002 135.856 261.723 136.002 261.43 136.296L254.785 142.79C254.49 143.018 254.344 143.295 254.344 143.621C254.344 143.881 254.426 144.109 254.588 144.304C254.785 144.467 255.012 144.548 255.272 144.548H258.743V159.687Z" fill="#9055FF"/>
</svg>
